<svg width="77" height="77" viewBox="0 0 77 77" fill="none" xmlns="http://www.w3.org/2000/svg">
<g id="bi:clouds-fill" clip-path="url(#clip0_17_130)">
<g id="Group">
<path id="Vector" d="M55.2138 43.3125C54.6724 38.4333 52.4892 33.8828 49.0223 30.4071C45.5554 26.9314 41.0105 24.7368 36.1327 24.183C31.2548 23.6292 26.3336 24.7491 22.1758 27.3592C18.0179 29.9692 14.8703 33.9145 13.2488 38.5481C9.53326 38.8522 6.07939 40.5818 3.61015 43.3748C1.14092 46.1677 -0.152248 49.8075 0.00134504 53.5323C0.154939 57.2571 1.74338 60.7781 4.43418 63.3583C7.12498 65.9385 10.7095 67.3778 14.4375 67.375H55.3437C58.5346 67.3578 61.588 66.0737 63.8321 63.8052C66.0762 61.5367 67.3272 58.4697 67.31 55.2788C67.2928 52.0879 66.0087 49.0345 63.7402 46.7904C61.4717 44.5463 58.4047 43.2953 55.2138 43.3125Z" fill="#222222"/>
<path id="Vector_2" d="M69.993 47.0278C68.8554 45.022 67.318 43.2711 65.4761 41.8837C63.6342 40.4963 61.5271 39.5019 59.2852 38.962C57.5783 32.491 53.4836 26.9069 47.8252 23.3334C42.1668 19.76 35.3648 18.4626 28.7884 19.7024C30.6339 16.3039 33.4598 13.5396 36.8983 11.7696C40.3367 9.99947 44.2284 9.30553 48.0667 9.77805C51.905 10.2506 55.5122 11.8677 58.4187 14.4188C61.3251 16.97 63.3962 20.3371 64.3624 24.0818C67.1562 23.9391 69.9125 24.7745 72.157 26.4443C74.4015 28.114 75.994 30.5138 76.6606 33.2307C77.3271 35.9476 77.0261 38.8119 75.8092 41.3309C74.5923 43.8498 72.5357 45.8612 69.993 47.0278Z" fill="#222222"/>
</g>
</g>
<defs>
<clipPath id="clip0_17_130">
<rect width="77" height="77" fill="white"/>
</clipPath>
</defs>
</svg>
