<svg width="38" height="57" viewBox="0 0 38 57" fill="none" xmlns="http://www.w3.org/2000/svg">
<g id="Group">
<path id="Vector" d="M36.6219 29.0721C32.5023 15.5241 20.378 1.06504 19.7617 0.334511C19.6654 0.229115 19.5482 0.144935 19.4176 0.0873402C19.287 0.0297455 19.1458 0 19.0031 0C18.8604 0 18.7192 0.0297455 18.5886 0.0873402C18.458 0.144935 18.3408 0.229115 18.2446 0.334511C17.6282 1.06504 5.5018 15.5221 1.38012 29.0721C0.535445 31.851 0 34.5968 0 37.1723C0 47.6487 8.52561 56.1723 19.0021 56.1723C29.4785 56.1723 38 47.6487 38 37.1723C38.0021 34.5968 37.4666 31.8531 36.6219 29.0721ZM19.0041 54.1882C9.62141 54.1882 1.9882 46.555 1.9882 37.1744C1.9882 34.6279 2.55478 31.8759 3.45964 29.0742C7.06455 17.9191 16.2916 5.9214 19.0041 2.54893C21.7167 5.9214 30.9437 17.9191 34.5445 29.0742C35.4494 31.878 36.0159 34.6279 36.0159 37.1744C36.0159 46.555 28.3848 54.1882 19.0041 54.1882Z" fill="black"/>
<path id="Vector_2" d="M8.35336 29.0721C7.31567 31.7079 6.6225 34.3477 6.6225 36.751C6.6225 40.0345 7.92688 43.1836 10.2487 45.5054C12.5705 47.8272 15.7196 49.1316 19.0031 49.1316C22.2866 49.1316 25.4357 47.8272 27.7575 45.5054C30.0793 43.1836 31.3837 40.0345 31.3837 36.751C31.3837 34.3477 30.6905 31.7079 29.6529 29.0721H8.35336Z" fill="black"/>
</g>
</svg>
