<svg width="155" height="155" viewBox="0 0 155 155" fill="none" xmlns="http://www.w3.org/2000/svg">
<g id="mdi:location">
<path id="Vector" d="M77.5 74.2708C73.2179 74.2708 69.1111 72.5697 66.0832 69.5418C63.0552 66.5139 61.3542 62.4071 61.3542 58.125C61.3542 53.8428 63.0552 49.7361 66.0832 46.7081C69.1111 43.6802 73.2179 41.9791 77.5 41.9791C81.7821 41.9791 85.8889 43.6802 88.9168 46.7081C91.9448 49.7361 93.6458 53.8428 93.6458 58.125C93.6458 60.2453 93.2282 62.3448 92.4168 64.3037C91.6054 66.2626 90.4161 68.0425 88.9168 69.5418C87.4175 71.0411 85.6376 72.2304 83.6787 73.0418C81.7198 73.8532 79.6203 74.2708 77.5 74.2708ZM77.5 12.9166C65.51 12.9166 54.0111 17.6796 45.5329 26.1578C37.0547 34.636 32.2917 46.135 32.2917 58.125C32.2917 92.0312 77.5 142.083 77.5 142.083C77.5 142.083 122.708 92.0312 122.708 58.125C122.708 46.135 117.945 34.636 109.467 26.1578C100.989 17.6796 89.49 12.9166 77.5 12.9166Z" fill="#222222"/>
</g>
</svg>
