<svg width="74" height="74" viewBox="0 0 74 74" fill="none" xmlns="http://www.w3.org/2000/svg">
<g id="material-symbols:search">
<path id="Vector" d="M60.4333 64.75L41.0083 45.325C39.4667 46.5583 37.6938 47.5347 35.6896 48.2542C33.6854 48.9736 31.5528 49.3333 29.2917 49.3333C23.6903 49.3333 18.9502 47.3929 15.0713 43.512C11.1925 39.6311 9.25206 34.891 9.25 29.2917C9.24795 23.6923 11.1884 18.9522 15.0713 15.0713C18.9543 11.1904 23.6944 9.25 29.2917 9.25C34.8889 9.25 39.6301 11.1904 43.5151 15.0713C47.4001 18.9522 49.3395 23.6923 49.3333 29.2917C49.3333 31.5528 48.9736 33.6854 48.2542 35.6896C47.5347 37.6937 46.5583 39.4667 45.325 41.0083L64.75 60.4333L60.4333 64.75ZM29.2917 43.1667C33.1458 43.1667 36.4224 41.8182 39.1213 39.1213C41.8203 36.4244 43.1687 33.1479 43.1667 29.2917C43.1646 25.4354 41.8162 22.1599 39.1213 19.4651C36.4265 16.7703 33.1499 15.4208 29.2917 15.4167C25.4334 15.4126 22.1579 16.762 19.4651 19.4651C16.7723 22.1681 15.4228 25.4437 15.4167 29.2917C15.4105 33.1397 16.76 36.4162 19.4651 39.1213C22.1702 41.8264 25.4457 43.1749 29.2917 43.1667Z" fill="#222222"/>
</g>
</svg>
