<svg width="61" height="61" viewBox="0 0 61 61" fill="none" xmlns="http://www.w3.org/2000/svg">
<g id="solar:wind-bold">
<path id="Vector" fill-rule="evenodd" clip-rule="evenodd" d="M15.8854 13.9792C15.8854 12.3454 16.3699 10.7483 17.2775 9.38993C18.1852 8.03151 19.4753 6.97275 20.9847 6.34754C22.4941 5.72233 24.155 5.55875 25.7573 5.87748C27.3597 6.19621 28.8316 6.98293 29.9868 8.13817C31.142 9.29341 31.9288 10.7653 32.2475 12.3676C32.5662 13.97 32.4027 15.6309 31.7774 17.1403C31.1522 18.6497 30.0935 19.9398 28.7351 20.8475C27.3766 21.7551 25.7796 22.2396 24.1458 22.2396H7.62498C7.11941 22.2396 6.63455 22.0388 6.27706 21.6813C5.91957 21.3238 5.71873 20.8389 5.71873 20.3333C5.71873 19.8278 5.91957 19.3429 6.27706 18.9854C6.63455 18.6279 7.11941 18.4271 7.62498 18.4271H24.1458C25.0255 18.4271 25.8855 18.1662 26.6169 17.6775C27.3484 17.1887 27.9185 16.4941 28.2552 15.6813C28.5918 14.8686 28.6799 13.9742 28.5083 13.1114C28.3366 12.2486 27.913 11.4561 27.291 10.834C26.6689 10.212 25.8764 9.78834 25.0136 9.61672C24.1507 9.4451 23.2564 9.53318 22.4437 9.86983C21.6309 10.2065 20.9363 10.7766 20.4475 11.508C19.9588 12.2395 19.6979 13.0995 19.6979 13.9792V14.8865C19.6979 15.3921 19.4971 15.877 19.1396 16.2345C18.7821 16.592 18.2972 16.7928 17.7916 16.7928C17.2861 16.7928 16.8012 16.592 16.4437 16.2345C16.0862 15.877 15.8854 15.3921 15.8854 14.8865V13.9792ZM36.2187 19.0625C36.2187 16.9261 36.8523 14.8376 38.0392 13.0612C39.2262 11.2848 40.9132 9.90026 42.887 9.08268C44.8609 8.2651 47.0328 8.05118 49.1282 8.46798C51.2236 8.88478 53.1483 9.91358 54.659 11.4243C56.1697 12.935 57.1985 14.8597 57.6153 16.9551C58.0321 19.0505 57.8182 21.2225 57.0006 23.1963C56.1831 25.1701 54.7985 26.8572 53.0221 28.0441C51.2457 29.2311 49.1573 29.8646 47.0208 29.8646H5.08331C4.57774 29.8646 4.09288 29.6638 3.73539 29.3063C3.3779 28.9488 3.17706 28.4639 3.17706 27.9583C3.17706 27.4528 3.3779 26.9679 3.73539 26.6104C4.09288 26.2529 4.57774 26.0521 5.08331 26.0521H47.0208C48.4032 26.0521 49.7546 25.6422 50.904 24.8741C52.0535 24.1061 52.9493 23.0145 53.4783 21.7373C54.0074 20.4601 54.1458 19.0547 53.8761 17.6989C53.6064 16.3431 52.9407 15.0976 51.9632 14.1201C50.9857 13.1426 49.7403 12.4769 48.3844 12.2072C47.0286 11.9375 45.6232 12.0759 44.346 12.605C43.0688 13.134 41.9772 14.0299 41.2092 15.1793C40.4412 16.3287 40.0312 17.6801 40.0312 19.0625V20.3333C40.0312 20.8389 39.8304 21.3238 39.4729 21.6813C39.1154 22.0388 38.6305 22.2396 38.125 22.2396C37.6194 22.2396 37.1346 22.0388 36.7771 21.6813C36.4196 21.3238 36.2187 20.8389 36.2187 20.3333V19.0625ZM8.2604 35.5833C8.2604 35.0778 8.46123 34.5929 8.81872 34.2354C9.17622 33.8779 9.66108 33.6771 10.1666 33.6771H47.0208C49.1573 33.6771 51.2457 34.3106 53.0221 35.4976C54.7985 36.6845 56.1831 38.3716 57.0006 40.3454C57.8182 42.3192 58.0321 44.4912 57.6153 46.5866C57.1985 48.682 56.1697 50.6067 54.659 52.1174C53.1483 53.6281 51.2236 54.6569 49.1282 55.0737C47.0328 55.4905 44.8609 55.2766 42.887 54.459C40.9132 53.6414 39.2262 52.2569 38.0392 50.4805C36.8523 48.7041 36.2187 46.6156 36.2187 44.4792V43.2083C36.2187 42.7028 36.4196 42.2179 36.7771 41.8604C37.1346 41.5029 37.6194 41.3021 38.125 41.3021C38.6305 41.3021 39.1154 41.5029 39.4729 41.8604C39.8304 42.2179 40.0312 42.7028 40.0312 43.2083V44.4792C40.0312 45.8616 40.4412 47.2129 41.2092 48.3624C41.9772 49.5118 43.0688 50.4077 44.346 50.9367C45.6232 51.4657 47.0286 51.6041 48.3844 51.3345C49.7403 51.0648 50.9857 50.3991 51.9632 49.4216C52.9407 48.444 53.6064 47.1986 53.8761 45.8428C54.1458 44.4869 54.0074 43.0816 53.4783 41.8044C52.9493 40.5272 52.0535 39.4356 50.904 38.6675C49.7546 37.8995 48.4032 37.4896 47.0208 37.4896H10.1666C9.66108 37.4896 9.17622 37.2888 8.81872 36.9313C8.46123 36.5738 8.2604 36.0889 8.2604 35.5833Z" fill="#333333"/>
</g>
</svg>
